<svg width="140" height="92" viewBox="0 0 140 92" fill="none" xmlns="http://www.w3.org/2000/svg">
<path d="M16.0946 90.4689C13.919 90.8525 11.8444 89.3999 11.4608 87.2243L0.694593 26.1662C0.31098 23.9906 1.76365 21.916 3.93923 21.5324L122.116 0.694598C124.292 0.310985 126.366 1.76366 126.75 3.93924L137.516 64.9973C137.9 67.1729 136.447 69.2475 134.272 69.6311L16.0946 90.4689Z" fill="#004ED6"/>
<path d="M16.0946 90.4689C13.919 90.8525 11.8444 89.3999 11.4608 87.2243L0.694593 26.1662C0.31098 23.9906 1.76365 21.916 3.93923 21.5324L122.116 0.694598C124.292 0.310985 126.366 1.76366 126.75 3.93924L137.516 64.9973C137.9 67.1729 136.447 69.2475 134.272 69.6311L16.0946 90.4689Z" fill="#004ED6"/>
<path d="M16.0857 90.5409C13.8849 90.7335 11.9448 89.1055 11.7523 86.9048L6.34862 25.1407C6.15608 22.94 7.78404 20.9998 9.98478 20.8073L129.528 10.3486C131.729 10.1561 133.669 11.784 133.862 13.9848L139.265 75.7488C139.458 77.9496 137.83 79.8897 135.629 80.0822L16.0857 90.5409Z" fill="#BA0000"/>
<path d="M16.0857 90.5409C13.8849 90.7335 11.9448 89.1055 11.7523 86.9048L6.34862 25.1407C6.15608 22.94 7.78404 20.9998 9.98478 20.8073L129.528 10.3486C131.729 10.1561 133.669 11.784 133.862 13.9848L139.265 75.7488C139.458 77.9496 137.83 79.8897 135.629 80.0822L16.0857 90.5409Z" fill="#BA0000"/>
<path d="M16 91C13.7909 91 12 89.2091 12 87L12 25C12 22.7909 13.7909 21 16 21H136C138.209 21 140 22.7909 140 25V87C140 89.2091 138.209 91 136 91H16Z" fill="#434343"/>
<path d="M16 91C13.7909 91 12 89.2091 12 87L12 25C12 22.7909 13.7909 21 16 21H136C138.209 21 140 22.7909 140 25V87C140 89.2091 138.209 91 136 91H16Z" fill="#434343"/>
<rect x="16" y="39.3149" width="24" height="14" rx="2" fill="#D7AC00"/>
<rect x="112" y="56.3149" width="25" height="14" rx="7" fill="#FFFBE9"/>
<rect x="113" y="74.3149" width="24" height="13" rx="2" fill="#FFFBE9"/>
<circle cx="131.5" cy="80.8149" r="4.5" fill="#FF9500"/>
<circle cx="125.5" cy="80.8149" r="4.5" fill="#FFE100"/>
<circle cx="118.5" cy="80.8149" r="4.5" fill="#003DF3"/>
<path d="M48.8608 27.5877H50.7955L53.3864 33.9115H53.4886L56.0795 27.5877H58.0142V36.3149H56.4972V30.3192H56.4162L54.0043 36.2894H52.8707L50.4588 30.3064H50.3778V36.3149H48.8608V27.5877ZM60.6264 38.7695C60.4162 38.7695 60.2216 38.7524 60.0426 38.7184C59.8665 38.6871 59.7259 38.6502 59.6207 38.6076L59.9787 37.4059C60.2031 37.4712 60.4034 37.5024 60.5795 37.4996C60.7557 37.4968 60.9105 37.4414 61.044 37.3334C61.1804 37.2283 61.2955 37.0522 61.3892 36.805L61.5213 36.4513L59.1477 29.7695H60.7841L62.2926 34.7127H62.3608L63.8736 29.7695H65.5142L62.8935 37.1076C62.7713 37.4541 62.6094 37.751 62.4077 37.9982C62.206 38.2482 61.9588 38.4385 61.6662 38.5692C61.3764 38.7027 61.0298 38.7695 60.6264 38.7695ZM77.0966 30.5323H75.5028C75.4574 30.2709 75.3736 30.0394 75.2514 29.8377C75.1293 29.6331 74.9773 29.4598 74.7955 29.3178C74.6136 29.1757 74.4063 29.0692 74.1733 28.9982C73.9432 28.9243 73.6946 28.8874 73.4276 28.8874C72.9531 28.8874 72.5327 29.0067 72.1662 29.2453C71.7997 29.4811 71.5128 29.8277 71.3054 30.2851C71.098 30.7397 70.9943 31.2951 70.9943 31.9513C70.9943 32.6189 71.098 33.1814 71.3054 33.6388C71.5156 34.0934 71.8026 34.4371 72.1662 34.6701C72.5327 34.9002 72.9517 35.0152 73.4233 35.0152C73.6847 35.0152 73.929 34.9811 74.1562 34.913C74.3864 34.8419 74.5923 34.7382 74.7741 34.6019C74.9588 34.4655 75.1136 34.2979 75.2386 34.099C75.3665 33.9002 75.4545 33.6729 75.5028 33.4172L77.0966 33.4257C77.0369 33.8405 76.9077 34.2297 76.7088 34.5934C76.5128 34.957 76.2557 35.278 75.9375 35.5564C75.6193 35.832 75.2472 36.0479 74.821 36.2041C74.3949 36.3576 73.9219 36.4343 73.402 36.4343C72.6349 36.4343 71.9503 36.2567 71.348 35.9016C70.7457 35.5465 70.2713 35.0337 69.9247 34.3632C69.5781 33.6928 69.4048 32.8888 69.4048 31.9513C69.4048 31.011 69.5795 30.207 69.929 29.5394C70.2784 28.8689 70.7543 28.3561 71.3565 28.001C71.9588 27.6459 72.6406 27.4684 73.402 27.4684C73.8878 27.4684 74.3395 27.5365 74.7571 27.6729C75.1747 27.8093 75.5469 28.0095 75.8736 28.2737C76.2003 28.5351 76.4688 28.8561 76.679 29.2368C76.892 29.6147 77.0313 30.0465 77.0966 30.5323ZM80.3597 36.447C79.945 36.447 79.5714 36.3732 79.239 36.2255C78.9094 36.0749 78.6481 35.8533 78.4549 35.5607C78.2646 35.2681 78.1694 34.9073 78.1694 34.4783C78.1694 34.109 78.2376 33.8036 78.3739 33.5621C78.5103 33.3206 78.6964 33.1274 78.9322 32.9826C79.168 32.8377 79.4336 32.7283 79.729 32.6544C80.0273 32.5777 80.3356 32.5223 80.6538 32.4882C81.0373 32.4485 81.3484 32.413 81.587 32.3817C81.8256 32.3476 81.9989 32.2965 82.1069 32.2283C82.2177 32.1573 82.2731 32.0479 82.2731 31.9002V31.8746C82.2731 31.5536 82.1779 31.305 81.9876 31.1289C81.7972 30.9527 81.5231 30.8647 81.1651 30.8647C80.7873 30.8647 80.4876 30.947 80.266 31.1118C80.0472 31.2766 79.8995 31.4712 79.8228 31.6956L78.3825 31.4911C78.4961 31.0934 78.6836 30.761 78.945 30.4939C79.2063 30.224 79.5259 30.0223 79.9038 29.8888C80.2816 29.7524 80.6992 29.6843 81.1566 29.6843C81.4719 29.6843 81.7859 29.7212 82.0984 29.7951C82.4109 29.8689 82.6964 29.9911 82.9549 30.1615C83.2134 30.3291 83.4208 30.5578 83.5771 30.8476C83.7362 31.1374 83.8157 31.4996 83.8157 31.9343V36.3149H82.3327V35.4158H82.2816C82.1879 35.5976 82.0558 35.7681 81.8853 35.9272C81.7177 36.0834 81.506 36.2098 81.2504 36.3064C80.9975 36.4002 80.7006 36.447 80.3597 36.447ZM80.7603 35.3135C81.07 35.3135 81.3384 35.2524 81.5657 35.1303C81.793 35.0053 81.9677 34.8405 82.0898 34.636C82.2148 34.4314 82.2773 34.2084 82.2773 33.9669V33.1956C82.229 33.2354 82.1467 33.2723 82.0302 33.3064C81.9165 33.3405 81.7887 33.3703 81.6467 33.3959C81.5046 33.4215 81.364 33.4442 81.2248 33.4641C81.0856 33.484 80.9648 33.501 80.8626 33.5152C80.6325 33.5465 80.4265 33.5976 80.2447 33.6686C80.0629 33.7397 79.9194 33.8391 79.8143 33.9669C79.7092 34.0919 79.6566 34.2539 79.6566 34.4527C79.6566 34.7368 79.7603 34.9513 79.9677 35.0962C80.1751 35.2411 80.4393 35.3135 80.7603 35.3135ZM85.3668 36.3149V29.7695H86.8626V30.8604H86.9308C87.0501 30.4826 87.2546 30.1914 87.5444 29.9868C87.837 29.7794 88.1708 29.6757 88.5458 29.6757C88.631 29.6757 88.7262 29.68 88.8313 29.6885C88.9393 29.6942 89.0288 29.7041 89.0998 29.7184V31.1374C89.0344 31.1147 88.9308 31.0948 88.7887 31.0777C88.6495 31.0578 88.5146 31.0479 88.3839 31.0479C88.1026 31.0479 87.8498 31.109 87.6254 31.2311C87.4038 31.3505 87.229 31.5166 87.1012 31.7297C86.9734 31.9428 86.9094 32.1885 86.9094 32.4669V36.3149H85.3668ZM92.2841 36.43C91.7699 36.43 91.3097 36.2979 90.9034 36.0337C90.4972 35.7695 90.1761 35.386 89.9403 34.8831C89.7045 34.3803 89.5866 33.7695 89.5866 33.0507C89.5866 32.3235 89.706 31.7098 89.9446 31.2098C90.1861 30.707 90.5114 30.3277 90.9205 30.072C91.3295 29.8135 91.7855 29.6843 92.2884 29.6843C92.6719 29.6843 92.9872 29.7496 93.2344 29.8803C93.4815 30.0081 93.6776 30.163 93.8224 30.3448C93.9673 30.5237 94.0795 30.6928 94.1591 30.8519H94.223V27.5877H95.7699V36.3149H94.2528V35.2837H94.1591C94.0795 35.4428 93.9645 35.6118 93.8139 35.7908C93.6634 35.9669 93.4645 36.1175 93.2173 36.2425C92.9702 36.3675 92.6591 36.43 92.2841 36.43ZM92.7145 35.1644C93.0412 35.1644 93.3196 35.0763 93.5497 34.9002C93.7798 34.7212 93.9545 34.4726 94.0739 34.1544C94.1932 33.8362 94.2528 33.4655 94.2528 33.0422C94.2528 32.6189 94.1932 32.251 94.0739 31.9385C93.9574 31.626 93.7841 31.3831 93.554 31.2098C93.3267 31.0365 93.0469 30.9499 92.7145 30.9499C92.3707 30.9499 92.0838 31.0394 91.8537 31.2184C91.6236 31.3973 91.4503 31.6445 91.3338 31.9598C91.2173 32.2752 91.1591 32.636 91.1591 33.0422C91.1591 33.4513 91.2173 33.8164 91.3338 34.1374C91.4531 34.4556 91.6278 34.707 91.858 34.8916C92.0909 35.0735 92.3764 35.1644 92.7145 35.1644ZM102.587 31.4996L101.181 31.653C101.141 31.511 101.071 31.3774 100.972 31.2524C100.875 31.1274 100.745 31.0266 100.58 30.9499C100.415 30.8732 100.213 30.8348 99.9748 30.8348C99.6538 30.8348 99.3839 30.9044 99.1651 31.0436C98.9492 31.1828 98.8427 31.3632 98.8455 31.5848C98.8427 31.7752 98.9123 31.93 99.0543 32.0493C99.1992 32.1686 99.4379 32.2666 99.7702 32.3434L100.887 32.582C101.506 32.7155 101.966 32.9272 102.267 33.2169C102.571 33.5067 102.725 33.886 102.728 34.3547C102.725 34.7666 102.604 35.1303 102.365 35.4456C102.13 35.7581 101.801 36.0024 101.381 36.1786C100.961 36.3547 100.478 36.4428 99.9322 36.4428C99.131 36.4428 98.4862 36.2752 97.9975 35.9399C97.5089 35.6019 97.2177 35.1317 97.1239 34.5294L98.6282 34.3845C98.6964 34.68 98.8413 34.903 99.0629 35.0536C99.2844 35.2041 99.5728 35.2794 99.9279 35.2794C100.294 35.2794 100.588 35.2041 100.81 35.0536C101.034 34.903 101.147 34.7169 101.147 34.4953C101.147 34.3078 101.074 34.153 100.929 34.0309C100.787 33.9087 100.566 33.8149 100.265 33.7496L99.1481 33.5152C98.5202 33.3845 98.0558 33.1644 97.7546 32.8547C97.4535 32.5422 97.3043 32.1473 97.3072 31.6701C97.3043 31.2666 97.4137 30.9172 97.6353 30.6218C97.8597 30.3235 98.1708 30.0934 98.5685 29.9314C98.9691 29.7666 99.4308 29.6843 99.9535 29.6843C100.721 29.6843 101.324 29.8476 101.765 30.1743C102.208 30.501 102.482 30.9428 102.587 31.4996Z" fill="white"/>
<rect x="16" y="60" width="3" height="6" fill="#D9D9D9"/>
<rect x="21" y="60" width="3" height="6" fill="#D9D9D9"/>
<rect x="16" y="73" width="3" height="6" fill="#D9D9D9"/>
<rect x="21" y="73" width="3" height="6" fill="#D9D9D9"/>
<rect x="26" y="73" width="3" height="6" fill="#D9D9D9"/>
<rect x="31" y="73" width="3" height="6" fill="#D9D9D9"/>
<rect x="26" y="60" width="3" height="6" fill="#D9D9D9"/>
<rect x="31" y="60" width="3" height="6" fill="#D9D9D9"/>
<rect x="38" y="60" width="3" height="6" fill="#D9D9D9"/>
<rect x="43" y="60" width="3" height="6" fill="#D9D9D9"/>
<rect x="48" y="60" width="3" height="6" fill="#D9D9D9"/>
<rect x="53" y="60" width="3" height="6" fill="#D9D9D9"/>
<rect x="60" y="60" width="3" height="6" fill="#D9D9D9"/>
<rect x="65" y="60" width="3" height="6" fill="#D9D9D9"/>
<rect x="70" y="60" width="3" height="6" fill="#D9D9D9"/>
<rect x="75" y="60" width="3" height="6" fill="#D9D9D9"/>
<rect x="82" y="60" width="3" height="6" fill="#D9D9D9"/>
<rect x="87" y="60" width="3" height="6" fill="#D9D9D9"/>
<rect x="92" y="60" width="3" height="6" fill="#D9D9D9"/>
<rect x="97" y="60" width="3" height="6" fill="#D9D9D9"/>
</svg>
